<mxfile host="65bd71144e">
    <diagram id="ivLYicBwzRJmgru_elpn" name="Page-1">
        <mxGraphModel dx="1890" dy="1628" grid="1" gridSize="10" guides="1" tooltips="1" connect="1" arrows="1" fold="1" page="1" pageScale="1" pageWidth="850" pageHeight="1100" math="0" shadow="0">
            <root>
                <mxCell id="0"/>
                <mxCell id="1" parent="0"/>
                <mxCell id="8" style="edgeStyle=none;html=1;strokeWidth=2;fontSize=24;" edge="1" parent="1" source="2" target="7">
                    <mxGeometry relative="1" as="geometry"/>
                </mxCell>
                <mxCell id="9" value="melakukan penyiraman" style="edgeLabel;html=1;align=center;verticalAlign=middle;resizable=0;points=[];fontSize=24;" vertex="1" connectable="0" parent="8">
                    <mxGeometry x="-0.1684" y="2" relative="1" as="geometry">
                        <mxPoint x="23" y="-16" as="offset"/>
                    </mxGeometry>
                </mxCell>
                <mxCell id="2" value="Petani" style="rounded=0;whiteSpace=wrap;html=1;strokeWidth=2;fontSize=24;" vertex="1" parent="1">
                    <mxGeometry y="170" width="120" height="60" as="geometry"/>
                </mxCell>
                <mxCell id="7" value="Penyiraman" style="ellipse;whiteSpace=wrap;html=1;aspect=fixed;labelBackgroundColor=none;strokeWidth=2;fontSize=24;" vertex="1" parent="1">
                    <mxGeometry x="450" y="120" width="150" height="150" as="geometry"/>
                </mxCell>
                <mxCell id="10" value="jumlah penyiraman" style="shape=partialRectangle;whiteSpace=wrap;html=1;left=0;right=0;fillColor=none;labelBackgroundColor=none;strokeWidth=2;fontSize=24;" vertex="1" parent="1">
                    <mxGeometry x="440" y="-20" width="170" height="60" as="geometry"/>
                </mxCell>
                <mxCell id="11" value="" style="endArrow=classic;startArrow=classic;html=1;strokeWidth=2;fontSize=24;entryX=0.5;entryY=1;entryDx=0;entryDy=0;exitX=0.5;exitY=0;exitDx=0;exitDy=0;" edge="1" parent="1" source="7" target="10">
                    <mxGeometry width="50" height="50" relative="1" as="geometry">
                        <mxPoint x="380" y="190" as="sourcePoint"/>
                        <mxPoint x="430" y="140" as="targetPoint"/>
                    </mxGeometry>
                </mxCell>
                <mxCell id="12" value="validasi" style="edgeLabel;html=1;align=center;verticalAlign=middle;resizable=0;points=[];fontSize=24;" vertex="1" connectable="0" parent="11">
                    <mxGeometry x="0.325" relative="1" as="geometry">
                        <mxPoint y="13" as="offset"/>
                    </mxGeometry>
                </mxCell>
                <mxCell id="13" value="Petani" style="shape=image;verticalLabelPosition=bottom;labelBackgroundColor=default;verticalAlign=top;aspect=fixed;imageAspect=0;image=data:image/png,iVBORw0KGgoAAAANSUhEUgAAAIAAAACACAYAAADDPmHLAAAABHNCSVQICAgIfAhkiAAAAAlwSFlzAAADsQAAA7EB9YPtSQAAABl0RVh0U29mdHdhcmUAd3d3Lmlua3NjYXBlLm9yZ5vuPBoAABaMSURBVHic7Z15lF1FmcB/VXd5S/frJSQGAiiKQFwICAOGOLI4ksQgmxNQdFhm5nDGgYkekeMMznEZPIPjNjjiDDp/oA7CaIAzoKLiOEJA9n0JgoQEwhJCku5+r/vt99Y3f9xOb2/p917ftzX9O+edfl1Vt+q773636quqr6pggQUWWGCBBToD2bxmUTuufaOiWl2gPHLGBrS1Acs9CGU5qDIiiIBfSOLnbiGSuli9646xsnk9esYAIldjR05Bu4mKeRm/iF/YihS/rY762ffCvqdakDuPE9xBePOHAFDLNpT97WtNF1a+dmO3Uz/y6KmXYsW+gBXpmzWxUmBH+rEj52F6zpFHz7gV412Dtu/CzWpy9olo96+wImuwnOr3oBRYtoNlHwZcLY+f9VWKuS+pP/n5d0K6ta6m6Qogj5xyGlbPj7AjAw1loG0HN3EGcEYQkIDoLNdED4L+4wAD+dcgsxkKu4M4OzqAHf03eeLsL2Gy56gjf/6bhuSaJ+hmZi4Pn3Yl7uAtDT/8Rom9DXQUdDz4vs+psGg12InJNFZkEXb/bfLw6d9oqWwdRtMUQO48bg125NNl2+VmU9xTGhbZHxafDrG3T4YpBZHEpfLIGRtaJ1xn0RQFkF9+KAJcRWZ3G54+kH0WTKE0XDkw8H7oey8T9q9S4ES/IQ+dGm+pjB1Cc2qAxMhHgEMo5iA/2pQiquLnIHl35fied0L/qsn/tRMBdVnzBes8mqMAok6Z+J7ZA2KaUkxVci9A5tnK8fFDofeoyf9te33TZepAmmQDyLETX40H6V3NKWY2kvdC5pnK8YkjILJf8F07b2mNUJ1F6Aogt63oAQ6eFpgfhXwq7KJqkQaS90F6c+Uk/asABdqJyeOre1omWocQfg0Qj7+7bL5ju6CYDb242RFIPQDDvwOTL422+iCyNDAGPWdN6+VrL+ErgOgVFSJgdAd4udCLrInci7Dr5sAumGmTqPEOgLJPbr1g7aUZI4GHV4wRA6lXoW8Z2LMN5zUBk4HkPTD6GMQPBmcR+FnIvxjEK31U9QzmH01QAKlQA+yNHleC3qXgtqnJNRkYe7I03LIOLg2c3zSjF/DuWVOIgbEdkBtuQvFzQLuD7Rah1YSqALLpmAOBfWpLDKT3QGoHiB+mGI2jLC13nzK7As8jwq0BlFO9+i9HMQ0jLwV/O4GYPmX2RPOHkJuAWdr/ShgvqAnGdoJpd21gva9pWStpWtaNlh+2EVi5B1AL+VHIpyHaB/FFoJo6W10ebb2raXkX04H90477qlB+2JIcMfcsDORGYORFyAy3vkbQ9n5Ny9sUYddDQBvmRiqUH4oCyPOXrZNtX/gpSr0jjPyA4MFn9wSKkN4Ffpnp3WZgOTF54fM3yAtfDNsWCG4gtQW23rR3yrwlyD3HxSb+SW2BbTdNDIk21ATItguiZL0/Q+z1xA88m8iSOPnhwAEzbMRALhl87ChEEuD2grbCLwsABUavJ7pkvbz8rwY//Rym+BNM/kp18NeSc8h4lL09JFMEd2gA2BmGxLNi9OC0WscvTkzM1KUA8tRfHIFWF5LxPwHWAIlDwB738cyPhCNsNbxc8MnsBicOTk8wmBS2MhSGIboUtKPRA4cBX0L8L8r2rzyFV/yKetvlN9Sdp/ASakoX2dXLaZUC+LJ8uv+32r73W00KIJvPew9KLkf4MHtf8tgBkw8foDCXl6NORKCQDj5pBbYbKIMTDWqJuRpZXpkuqbIU9sDh2LJRtn91J2b0EnXQFdfXnKfmaYQjp4QcC2yam6A1l30M0ypn84fJqCrI5rNc2XzuN0EeRPjwtEh3xnhPvl2jegJeHrJDwRDz8FZIvhzYDflUUGPU65AiZWYNJ1Bg9y7F2fc6efHyB2TzRb21ZapmuCip0+oTag6InD79f/X7vV8rKoBsuyAK0Z8BnwXK1LEz2vtCC5qAWhCCh55LwtjrgTIMbQuMydSOQDFyI0Ht4RfK9zJqqUGUAmfwGBIHbpNtX57d61lzG9N+NFkltx+3vOb7ahD5/fveBaycGoSR2ybFqkTG/yJQeX48//r0/yO1jQC3BwG/GPSDc0lI7w6mpke2w/A2GNoyriTbIfUKFL3as7Z7F6PUrbMlU++753ngvilBGkv9ffnEdRrT1dL75nNMWwGm7lYn3ffCpBCVcz2/aqG5HVCY4n697ARYdiL0HgiWW13gTkMIDMnYUliyEpb+aX3XO4n31ljOd2cEnCd3rSy91stQ11hBhfSy6bhVKM6dHmimyVDFCJRZ6kGB9NbAYIodEFSb8WXBRwTyeyA/FPQO8kNQHCvvqt0OtAtOL0QWgTsA0UVBDdboGoZaX9idB/yUfV/+InDYXkkQda3879HHqJMfnrSi/QLsfgT2Obq2fMukl9tPHEDl/4vp6z+fZueBN06tiKoogLoG5PPVS5Zg6VVhCGL7Q2RxUJ5SEF0cfGYK6qeDqtjPBcabyYGfD+LEC+YFzN7vZrIcU5yel3Ym701rUHbwYLUdfLdcsCLjn2jwcXrBiodfQ3nJ22tJps6+wZdNqz6FmmyDgUOIuBvl9hNPVyfdMekuNfJHSL1QuwxT0svtJ0ax8jcw0zdT1AZ19g3TjJ6KKi/PbYhQGLmFanbATLQD7hJwFwU/9BuB4vDLOOYwtezLmVovkTtX/ieoC2cE/wY/8lGs6d0pdfy9s68OnoofGcQubERkhnubulodf89FM6+vWM2rQ67KQ+40hK9Ta4NkipB7FVJPQfJxyG4Hr+zK7nmAgcLrv2XMHFzPwwfAVp9GeGhG6Gqs/ANzFsvKP1D68Lkf372kXPKaGj35wycOR/QVCKfUes30UqzxqrcH7N5gkaZ26s6mrZhiYO+YtODlH8QUL1HLv1tl+VF15M73LwHvLibtgbLUXQOUZMAzeIX3q5Me3l0+ug7kiQuWY/kXIda5KH9uK361GyiFjoIeb6d1JPi0Y0EpACawR/baJSYXOI36aTBqGOVfiyX/oZb/uMqSo9oZV4JbgWMqJ+IyFPdis4V8JOh2RfL74MshGLUSxVerFHE/2Keq4++quDKn7l86edsPP6NQ39JOWjmxndixnWgnTG8eNW7MOZMGnXIm/2orqFEA0OODNqrCrQgTJrqYwPVMPJBiYGyKD1IYNzzz44bm5AtlvChebgleZil+cUDEqEv615737RBvNpip87kS4W/CzBfU1fjuJdMMy3Kp6sly9Fc/OFG0/t3M67SdwR7Io61hLGsIrZPU3jfqFBTGDOD7gxh/Ed6Ii/FKDFnRwuretef/NuzS5a6VHwR1FcJcRwefRtQGdcI9v6slcc0KIL/8TmTU6t/MzK7FOLp/ypC48tE6ibZSaJVG6TRaj6FVGlSbXb7EwkgPxvQiphcjcYzfhzED04Y+TLKi8bol4SffrdZ9qtqEQWOibTzLYr+Xz0a4GBhfs1bbpaDuRsx3Of6+G5SqfRSpZgUY/fUP/1yUurFS/DQFqIigVA6tM6AKKJVH6QKK/JTvBVCCUnuHYz2C2sRMhInYBB0Yxd6hDBEbRCESQcQJ/hJBjItIBMTFmDgisVKxylBFAQB9Zt+ac2+uKaMGkU3HvhWs1VvTh36v3x2m1x7FUcFYSFFcxoq9JIuDvK3nj5/EyG1Th3froWZ/AFH6nLlX6wqRGL5f20PoXMzHgaYqgDrhgW3A93/4o7+tuqvZwet+9P25lFPHxHmDHr/zk3nzW9TjEdQ8Z8nuY/9WFXTAAQeSy2XJFwr4XmA/WbZFxHWJRudek9ajAC1zYuwCWjbdud9+5d87pRS2NXev/npyGAXmvBWr0hrluGitUbpN/vE1kK9mBArt2O1igr5Egt7eBFrPfcCsdiMQHlHwwUYLUlpjxXux3O6vSBQ83K6yFy0aJB4Lb6Kt9ldQ8YtGC1G2jdM3OC8ePoBRzOoB1Axi0VioDx/qUIBC1rsGKLMDY3WU1jiJ/o6u7utkVxZ1TTsKjsfDn2Kv+aksOf2vRxV8st4CrFgPql1r4ZqAgg37rjmvLUuZbTv8/TzqejKJNeffiOIfa02vlMJy27AVTHMQUJcl1pz/03YJ0IxJ0rpfzb7V51+hUOcAr8+WNtiAsyG5OgzZqUQ+1rfmvH9ptyRh01DdnFhz3k88nTtUKfV3wO8Qyjob0M3tvrBbhP9TcLGn84cl1l6wsd0iNYPQ3s+x+27KM2OAxIr1YIdstbYGwTn0hI6ouzY//czEBMy+S5eW2AH9/Yk5yRnmK1o6ctKOPYJDQKTrnBkaJkwFKFkdKs1YLt4ClEgdS4O6mzAV4IWSENOdNYAxfhv2uG8PoSmAiJQ4Sorf7g2fGkTMq+0WoVWEpgBaq8dmhonxkW6sBUTaNtbfakJTAF/7d5QLF79YLrijKRrz43bL0CpCU4C+Y85+Fnh5ZrgpdpcCiDFe74q1oXv9dioh7xSqSgZLTCF059mmIl7hkXbL0ErCVoBrZwaJMZhihywLrwXDN9stQisJVQF6jz3zMYF7Z4b7uXacFFI/4heTkRWr698BrIsJfbBeK3XFzDBTLCB+54+t+AXvynbL0GpCV4D4sWfeCpQsc/YyHbIbeAXE90ejK1Zf3m45Wk3oCqCUEoW+CJg2CmSKhQ62BQQ/n79YqXZv5916mjJf27PyzIdB/n1meDE92pHzA6ZQeCh25NoSA/aNQNMm7HuG4p8DpnepjMHLdNaOIWL8nGvyq9stR7tomgKodevyPvIxYGhquMnnOqZXIGIkn/PXqRUf7rDDi1pHU112+leuf06LrAOmWYBeJt12e0BEKOZzGxJHfrCmHb7mK0332Yoft/5+jFoPTNlISSiOptqmBCKC5LP/0LNibYmd8kajJU57vas+8mtt9Ekw1XdQKI6l8Fs8VCwiYnKFiyIr1n6tpQV3KC3z2oyvOvMBH1mF4tGJQBG8sRReNtOSHWXE97J+pvCB6BEnX9380rqDlrrt9q9c/1xPJrUK5DtMGSfws2mKoyNNPB9IEK/wsJPM7Rt7z8l3NKmQrqRlnq8v3XNWbFH0gI/bunChbWWP3jN8jB2xB7D0FEdipbCiMaxoHBXSKgjjFUknX2ag93a/6MefMyZyXdSyrlRHfLOzhybHabZXcFMVYPstH1vmifl6T485ZXBxZMBxJyuc13YHW+PZOoprJ7DUpCIobWFFY+hIpOFlZcYrkB17nWw2MDv2XfzgRJygxPfjrxSL0VtEuVf0HPX1jnUB6zoFuP+7Hz20UMx+dvkR7nmDiyNRyyr/APcqwF60cnCsOLaOocf3AVRKodwIlhtBO7PvyWB8H68wRja9m2Jxul/nVAWYiojC83t3DY28458t5W1ccvxndtRyn62iKxTgtU1XvRU47cHfXnt5dmy4DxHOuvC46tfsrrw5plI2jo6glYNWNlrZkxtLWA7KstDawojBeAW8YpZcfgTfq7xlbyUFmCGPAR4F+QVKbdzv+E89XfWiFtBsBWjs2Dj5sp178tBz8/nsymwmfbQgRwNkR4dmu7TG/D0K5aaPq+55GQoaOBrU0Qhfyjx5Q1pr/ZIv3nXxlPqWWnV2ZwxhhkhdCjD22PV/aTvOpd6W6HK3x9KFeo5W6UK0pXqcSGy5A1/xov4/ZTff+KxfLHyj98iP/6DdsoVFTRbW2BP//fHcMzenYomBa5xozzu1rtCw14G/7ddILpwaoxo2KQbVnXPORytLu9H4O2KJgWvyz9ycHHvk+nNCEK/tzPog009uvDUW77/OcdxEmAWb9Kt4z9+C/8rdwSlfIaMpkOAx9lG/IsIroeZtO25frG/g+vRTP/1ZqBm3gaoKkNl842PReO+6pnUWRTDDz1J87ib83U+EtJhUiKvnWax+QY/6A3Vsmzs72kIvWYFa9HawXaKxxKmZzTfMPPihq6ioAOmnNt4cicZDOA28Bvw85rWHKG75H0xqW8PZuOo1Fqtf0ccDaJowx6BdcHtRsTehl6wAJ04k2nN0+vGNN4VfWGsoqwBjj1+/NhLtOb1cXFPJJ/G33163fbC3nV/E7dili5TDw89P1lKWi97nHaAdIj09H0k+et265hXcPMoqgO3Grg1rKLYRarUPmtnOl0UMkp2imFYENfh2lFJEIrG27Bw2V0oUYOzRa0923MjicolbSlX7oInt/Gxijb0cnIs4jooOoiIDOJHo0rHHr1/bMkFCokQBtB2d5azAFjPDPmh6Oz8bxQySeW16WGIZAFrpS1sv0NwoUQDbcVpi+Fn7v6++Y97H7YP623lFSo6qW75qSPJFKEw6t6pIP2gby3HfE2pBLaDkCShL97Wk4MHDsA9aC05P08rw6WFIPkCm+sls9SMGs+eZKUqgwHJQlt0fbkHNp2QoWCld5qj45qB69sU5ZD1mz9NBO++HU6UbIqTlnWQ4BCl38n0ohRQwu59C9S4DOw5eHq1b99uFRTkFaK0E2kIvORy9+J3I2A7M6HYkN4QU0+BlZx0cEjSGKIY4RRkkz/4UWIq0wtlJDDI6uSVCN26JG/7ms42iLFTiAKzEAVWTvdZ5C4u6mu5T2QVCZUEB3uAsKMAbnAUFqEIHLmQOnTkpgHTpXsC10pV7HNbJnBTANG0hR2dgzPx2eYM5KoDXsTt+hEOhy7a4a4SGxwF838P3Km8C+dIdT5Yv0FX07+vwpt4ttHTcbNbjrkrd1Iv5DMGixY44OqApNFwD5NIzzk6cajFV+L3siGLpwRHi/VZrH35NlLb3xvfJZ7tiBVnDNKQAIoZsevqMXLE4WV06FU60HFjqoO3OfJu0X/5BZ0bn9+YhDSlAOjmEmbEVfCE7OT3q2KXZOjFNrL/jXvsJtF/+2KNiIU92rIluZm2mbgXIZ9NkxkZKwkd2T7pk9cVKsx1Y6tRbVEtxvZcqxo2l9sxbg7cuBSjk0qSGXisbN7Rj68T3RT3Tbcu+NzlEE5095hS1d1aME2NI7tkxL8cFanoqIkI6uYeR3TvK7vM3OryTkd3BtGhvVNMXm6zqYwlN/5s6Z9KxEm7Ew8mXHHoyge8VSQ5VVpJupaoCiDHk0imGdm4nXcEYMsaw9fFNIIJS8JYlk4dFOhHFPm92u6YXleAxqp0XVcil551RWPJqZseS+L6HV8xTzGdn3dlz6xObSA0HzcJBSyIkopNv/8B+LiqEM+5bhRs19Kd/SSp+WsU0Y8kh3Ggc25kfJ6GX1ACjI7vIjA5TyGVmffg7tj3Jjm3BgM/Sfoel/ZOGnhvXHd/ulyPekyaW+X2VFMJYsu5D1DuWhp9Qas8Otj6xCYDemMVBS6a/EfG+zu3yzUZf/CXs/HMV4wu5DH4XbH9fCw0rwLanfo8Zt4rfstgtOdk60oVv/16Ugj4eodredcEwcffT0FMa3vUSqaFgK53+uDWt3d+L3aEjfrXiRg1O9pmK8b73Bq4B9rzy/MT3Rb3lu3jK6m4FAIjK1opx82VMoCEFSO2ZHPUr9/YDGK/73Wlcu7O2tm8GDSlAPjc5ceJWqOqzo93/hlh25XuQFi5IbSYNKYA3ZebPrtDPH91V7NbT4yeoNmVdzDd/y7JW0JipXsPcv1cQ9mwvdL0SVMIrFkp9IrqQpvbVsqM+O7fkyCT9eakIqeFdZFLDXe0c2/RZmmI+qAmUAm2r0DaBbhXq0GqxwlhqD+nRISzL6bp7gxauDRQBvyi05GCAEKnFi0FE8Lzu9Bfo3uG6BRZYYIEFFlhggQUa5v8B1BNuQJfK3l0AAAAASUVORK5CYII=;fontSize=22;" vertex="1" parent="1">
                    <mxGeometry x="20" y="250" width="128" height="128" as="geometry"/>
                </mxCell>
            </root>
        </mxGraphModel>
    </diagram>
</mxfile>